# xmcd
#
# Track frame offsets: 
#        150
#        20778
#        36281
#        49005
#        64198
#        78336
#        93547
#        109544
#        122047
#        140369
#        162215
#        173895
#        191660
#        212296
#
# Disc length: 3158 seconds
#
# Revision: 0
# Processed by: cddbd v1.5.2PL0 Copyright (c) Steve Scherf et al.
# Submitted via: ExactAudioCopy v0.99pb5
#
DISCID=bb0c540e
DTITLE=Little Jane and The Pistol Whips - This Town
DYEAR=2010
DGENRE=Country
TTITLE0=Go to the Bottle
TTITLE1=Wanna Go Too Fast
TTITLE2=This Town
TTITLE3=All I Need to Know
TTITLE4=Red, Red Water
TTITLE5=This Ain't Love
TTITLE6=Room to Roam
TTITLE7=Gray Days
TTITLE8=Hey Lord
TTITLE9=No Room
TTITLE10=Best Thing I've Seen
TTITLE11=Honesty
TTITLE12=Death of Me
TTITLE13=Let Me Pretend
EXTD=
EXTT0=
EXTT1=
EXTT2=
EXTT3=
EXTT4=
EXTT5=
EXTT6=
EXTT7=
EXTT8=
EXTT9=
EXTT10=
EXTT11=
EXTT12=
EXTT13=
PLAYORDER=
